HIERARCHY
ROOT hip
{
  OFFSET 0 0 0
  CHANNELS 6 Xposition Yposition Zposition Zrotation Yrotation Xrotation
  JOINT abdomen
  {
    OFFSET 0 20.6881 -0.73152
    CHANNELS 3 Zrotation Xrotation Yrotation
    JOINT chest
    {
      OFFSET 0 11.7043 -0.48768
      CHANNELS 3 Zrotation Xrotation Yrotation
      JOINT neck
      {
        OFFSET 0 22.1894 -2.19456
        CHANNELS 3 Zrotation Xrotation Yrotation
        JOINT head
        {
          OFFSET -0.24384 7.07133 1.2192
          CHANNELS 3 Zrotation Xrotation Yrotation
          JOINT leftEye
          {
            OFFSET 4.14528 8.04674 8.04672
            CHANNELS 3 Zrotation Xrotation Yrotation
            End Site
            {
              OFFSET 1 0 0
            }
          }
          JOINT rightEye
          {
            OFFSET -3.6576 8.04674 8.04672
            CHANNELS 3 Zrotation Xrotation Yrotation
            End Site
            {
              OFFSET 1 0 0
            }
          }
        }
      }
      JOINT rCollar
      {
        OFFSET -2.68224 19.2634 -4.8768
        CHANNELS 3 Zrotation Xrotation Yrotation
        JOINT rShldr
        {
          OFFSET -8.77824 -1.95073 1.46304
          CHANNELS 3 Zrotation Xrotation Yrotation
          JOINT rForeArm
          {
            OFFSET -28.1742 -1.7115 0.48768
            CHANNELS 3 Zrotation Xrotation Yrotation
            JOINT rHand
            {
              OFFSET -22.5879 0.773209 7.07136
              CHANNELS 3 Zrotation Xrotation Yrotation
              JOINT rThumb1
              {
                OFFSET -1.2192 -0.487915 3.41376
                CHANNELS 3 Zrotation Xrotation Yrotation
                JOINT rThumb2
                {
                  OFFSET -3.37035 -0.52449 3.41376
                  CHANNELS 3 Zrotation Xrotation Yrotation
                  End Site
                  {
                    OFFSET -1.78271 -1.18214 1.43049
                  }
                }
              }
              JOINT rIndex1
              {
                OFFSET -7.75947 0.938293 5.60832
                CHANNELS 3 Zrotation Xrotation Yrotation
                JOINT rIndex2
                {
                  OFFSET -2.54057 -0.884171 1.56538
                  CHANNELS 3 Zrotation Xrotation Yrotation
                  End Site
                  {
                    OFFSET -1.62519 -0.234802 1.16502
                  }
                }
              }
              JOINT rMid1
              {
                OFFSET -8.24714 1.18213 3.41376
                CHANNELS 3 Zrotation Xrotation Yrotation
                JOINT rMid2
                {
                  OFFSET -3.10165 -0.590103 1.0647
                  CHANNELS 3 Zrotation Xrotation Yrotation
                  End Site
                  {
                    OFFSET -2.48547 -0.328903 0.83742
                  }
                }
              }
              JOINT rRing1
              {
                OFFSET -8.82822 0.546677 1.51678
                CHANNELS 3 Zrotation Xrotation Yrotation
                JOINT rRing2
                {
                  OFFSET -2.60934 -0.819778 -0.0198488
                  CHANNELS 3 Zrotation Xrotation Yrotation
                  End Site
                  {
                    OFFSET -2.33842 -0.294052 0.168128
                  }
                }
              }
              JOINT rPinky1
              {
                OFFSET -8.27202 -0.0477905 -0.4584
                CHANNELS 3 Zrotation Xrotation Yrotation
                JOINT rPinky2
                {
                  OFFSET -1.82734 -0.647385 -0.700984
                  CHANNELS 3 Zrotation Xrotation Yrotation
                  End Site
                  {
                    OFFSET -1.69225 -0.51767 -0.607171
                  }
                }
              }
            }
          }
        }
      }
      JOINT lCollar
      {
        OFFSET 2.68224 19.2634 -4.8768
        CHANNELS 3 Zrotation Xrotation Yrotation
        JOINT lShldr
        {
          OFFSET 8.77824 -1.95073 1.46304
          CHANNELS 3 Zrotation Xrotation Yrotation
          JOINT lForeArm
          {
            OFFSET 28.1742 -1.7115 0.48768
            CHANNELS 3 Zrotation Xrotation Yrotation
            JOINT lHand
            {
              OFFSET 22.5879 0.773209 7.07136
              CHANNELS 3 Zrotation Xrotation Yrotation
              JOINT lThumb1
              {
                OFFSET 1.2192 -0.487915 3.41376
                CHANNELS 3 Zrotation Xrotation Yrotation
                JOINT lThumb2
                {
                  OFFSET 3.37035 -0.52449 3.41376
                  CHANNELS 3 Zrotation Xrotation Yrotation
                  End Site
                  {
                    OFFSET 1.78271 -1.18214 1.43049
                  }
                }
              }
              JOINT lIndex1
              {
                OFFSET 7.75947 0.938293 5.60832
                CHANNELS 3 Zrotation Xrotation Yrotation
                JOINT lIndex2
                {
                  OFFSET 2.54057 -0.884171 1.56538
                  CHANNELS 3 Zrotation Xrotation Yrotation
                  End Site
                  {
                    OFFSET 1.62519 -0.234802 1.16502
                  }
                }
              }
              JOINT lMid1
              {
                OFFSET 8.24714 1.18213 3.41376
                CHANNELS 3 Zrotation Xrotation Yrotation
                JOINT lMid2
                {
                  OFFSET 3.10165 -0.590103 1.0647
                  CHANNELS 3 Zrotation Xrotation Yrotation
                  End Site
                  {
                    OFFSET 2.48547 -0.328903 0.83742
                  }
                }
              }
              JOINT lRing1
              {
                OFFSET 8.82822 0.546677 1.51678
                CHANNELS 3 Zrotation Xrotation Yrotation
                JOINT lRing2
                {
                  OFFSET 2.60934 -0.819778 -0.0198488
                  CHANNELS 3 Zrotation Xrotation Yrotation
                  End Site
                  {
                    OFFSET 2.33842 -0.294052 0.168128
                  }
                }
              }
              JOINT lPinky1
              {
                OFFSET 8.27202 -0.0477905 -0.4584
                CHANNELS 3 Zrotation Xrotation Yrotation
                JOINT lPinky2
                {
                  OFFSET 1.82734 -0.647385 -0.700984
                  CHANNELS 3 Zrotation Xrotation Yrotation
                  End Site
                  {
                    OFFSET 1.69225 -0.51767 -0.607171
                  }
                }
              }
            }
          }
        }
      }
    }
  }
  JOINT rButtock
  {
    OFFSET -8.77824 4.35084 1.2192
    CHANNELS 3 Zrotation Xrotation Yrotation
    JOINT rThigh
    {
      OFFSET 0 -1.70687 -2.19456
      CHANNELS 3 Zrotation Xrotation Yrotation
      JOINT rShin
      {
        OFFSET 0 -36.8199 0.73152
        CHANNELS 3 Zrotation Xrotation Yrotation
        JOINT rFoot
        {
          OFFSET 0.73152 -45.1104 -5.12064
          CHANNELS 3 Zrotation Xrotation Yrotation
          End Site
          {
            OFFSET -1.1221 -3.69964 12.103
          }
        }
      }
    }
  }
  JOINT lButtock
  {
    OFFSET 8.77824 4.35084 1.2192
    CHANNELS 3 Zrotation Xrotation Yrotation
    JOINT lThigh
    {
      OFFSET 0 -1.70687 -2.19456
      CHANNELS 3 Zrotation Xrotation Yrotation
      JOINT lShin
      {
        OFFSET 0 -36.8199 0.73152
        CHANNELS 3 Zrotation Xrotation Yrotation
        JOINT lFoot
        {
          OFFSET -0.73152 -45.1104 -5.12064
          CHANNELS 3 Zrotation Xrotation Yrotation
          End Site
          {
            OFFSET 1.1221 -3.69964 12.103
          }
        }
      }
    }
  }
}
MOTION
Frames:	4
Frame Time:	0.03333
8.883700007072548 59.43260192871094 3.2600000566162635 173.49000144685544 -151.75400358317873 -172.58800666506355 1.3832600492730316 11.964800100269116 6.073600151027153 -0.9081409915495433 -6.85809006588543 1.4827600039459559 -0.6281170026790663 14.681899724745316 5.5812498066881915 1.4976500297799953 -25.85920035805312 11.384000086838958 -0.0 0.0 0.0 -0.0 0.0 0.0 -2.5768899066368666e-13 -4.640009774721418e-13 4.3509799740538523e-13 72.57879906403859 51.959499563618515 -22.670799751599464 -27.131099402272675 -43.654498381976175 90.76190327620392 -0.019485499170574926 -3.9800302034287083 -0.5602689983936273 1.3264700095864512e-09 3.621130085556533e-10 -4.668789888780546e-09 2.300750043046414e-09 5.667310122175947e-10 -8.066920352462954e-09 1.3264800482121647e-09 3.6211099586089395e-10 -4.6688101648166405e-09 7.730910121524428 5.474879855648998 0.41731399283890674 1.3264700095864512e-09 3.621119897842319e-10 -4.668789888780546e-09 2.90554006136521 0.9651829962377875 0.10290200252939893 1.3264800482121647e-09 3.621119897842319e-10 -4.668789888780546e-09 10.278599710243157 0.7318009818271524 0.025912300303053633 1.3264700095864512e-09 3.62109008014218e-10 -4.668779949547166e-09 2.221669932038622 -0.7334870246959406 -0.20891999872313852 -2.5780401011246394e-13 -4.640009774721418e-13 4.349140148187546e-13 -54.739700744515524 38.28420067535112 -28.399899248156338 27.704300830251192 -41.753001037801305 -87.12540127906242 1.0230400345930846 -27.450699321463205 4.186750147527375 -9.920580420290045e-10 2.4336499179807022e-09 4.6140599971375935e-10 -1.724770077207457e-09 4.168960154617862e-09 7.697960106639779e-10 -9.920620177223562e-10 2.4336499179807022e-09 4.614050057904214e-10 -7.730910121524428 5.474879855648998 -0.41731399283890674 -9.920580420290045e-10 2.4336600559987494e-09 4.6140798756043525e-10 -2.90554006136521 0.9651829962377875 -0.10290200252939893 -9.920659934157081e-10 2.4336499179807022e-09 4.6140301794374546e-10 -10.278599710243157 0.7318009818271524 -0.025912300303053633 -9.920539669433189e-10 2.4336600559987494e-09 4.6139601078421286e-10 -2.221669932038622 -0.7334870246959406 0.20891999872313852 -2.0321699793705798e-16 0.0 -3.882510030490358e-19 -7.4393498364240935 -13.184899843596941 -3.984019887677642 -0.6211189936267123 56.874800803588585 2.4166600934548503 -12.205600127005207 -17.641000635477887 -33.58100071477204 2.0321699793705798e-16 0.0 3.882510030490358e-19 47.223699110130966 -51.786600154968816 40.181299377700505 0.8588490104134423 53.47650165375127 -0.5171129817314307 -0.2678160129048577 11.33200014914036 -1.238530048307754
8.91580000702561 59.1264009475708 4.000000056839781 173.28699456434433 -153.82300448655897 -172.88800223378885 1.936429919798077 11.718200389154037 6.091499942407641 -0.8547010045139818 -6.846699871670787 1.4964100302805206 -0.8238489866721813 14.813000083221834 5.132949913627582 1.8918699790963254 -25.798700249932438 10.586000057802396 -0.0 0.0 0.0 -0.0 0.0 0.0 -5.56966029323343e-14 -7.724069811730073e-14 6.604450235467002e-13 73.8120990017111 51.457299659609575 -23.791900171776188 -27.144899799490684 -43.61490036026303 90.68429866685423 -0.024548800444616697 -4.46423981605066 -0.6286979956453406 8.65986022857148e-10 4.4103598816782555e-09 -4.2394698713512265e-09 1.5044199567753252e-09 7.561580307314634e-09 -7.324839695293249e-09 8.659919863971758e-10 4.410349942444876e-09 -4.239479810584606e-09 7.730910121524428 5.474879855648998 0.41731399283890674 8.659880107038239e-10 4.410349942444876e-09 -4.2394698713512265e-09 2.90554006136521 0.9651829962377875 0.10290200252939893 8.659919863971758e-10 4.4103598816782555e-09 -4.2394698713512265e-09 10.278599710243157 0.7318009818271524 0.025912300303053633 8.659789660014485e-10 4.410349942444876e-09 -4.239459932117847e-09 2.221669932038622 -0.7334870246959406 -0.20891999872313852 -5.58478025494928e-14 -7.724069811730073e-14 6.603000116846975e-13 -54.59939841367971 38.76029901144686 -29.519800970133723 27.775799250482887 -41.46219890369884 -86.584996711931 0.9929929652171406 -27.083300030913634 4.121209786686049 -9.264139776042761e-10 2.137090029864354e-09 3.072040119272009e-10 -1.6101799598280177e-09 3.6651300778045668e-09 5.079429812819294e-10 -9.264159654509521e-10 2.137090029864354e-09 3.072029931557795e-10 -7.730910121524428 5.474879855648998 -0.41731399283890674 -9.264139776042761e-10 2.1371200463491604e-09 3.072019992324416e-10 -2.90554006136521 0.9651829962377875 -0.10290200252939893 -9.264230223066516e-10 2.137090029864354e-09 3.072010053091036e-10 -10.278599710243157 0.7318009818271524 -0.025912300303053633 -9.264100019109243e-10 2.1370999690977338e-09 3.07193998149571e-10 -2.221669932038622 -0.7334870246959406 0.20891999872313852 -2.0321699793705798e-16 0.0 -3.882510030490358e-19 -6.972170019837098 -11.39030008257465 -3.6103598749801082 -0.5954059994442588 56.37959842838432 2.408649989105718 -12.06010002221101 -17.8282007527023 -33.205500819866835 2.0321699793705798e-16 0.0 3.882510030490358e-19 46.96050118555911 -52.617598535433 39.85330003337815 0.8963599824483292 54.15529951384548 -0.5340130041721579 -0.16564700173119218 9.831359777164367 -2.680989908438225
8.950500006403672 58.86390209197998 4.700000078446465 173.08499854983037 -155.4080045249738 -173.05500035899567 2.259559979572445 11.390200191058037 6.043519997922417 -0.6780050245419569 -6.697029936388298 1.4953199747776689 -0.8557020007533589 14.5303002610223 4.777549984789254 2.145459961940089 -25.506200813821227 9.942580016287916 -0.0 0.0 0.0 -0.0 0.0 0.0 -3.1747500211490364e-14 1.8631899501430073e-15 7.513729936035123e-13 74.52719931724393 51.20529983018195 -24.212300022737764 -27.163100546081477 -43.56270063953121 90.58200292365495 -0.03090930071737868 -5.021170025878915 -0.7074979948214835 5.517990037344601e-10 8.365319992677862e-09 -4.024450062388226e-09 9.620110437762172e-10 1.438969926064633e-08 -6.953160075217423e-09 5.518040230473169e-10 8.365309655875147e-09 -4.024460001621606e-09 7.730910121524428 5.474879855648998 0.41731399283890674 5.517999976577981e-10 8.365309655875147e-09 -4.024450062388226e-09 2.90554006136521 0.9651829962377875 0.10290200252939893 5.51801985504474e-10 8.365319992677862e-09 -4.024450062388226e-09 10.278599710243157 0.7318009818271524 0.025912300303053633 5.517910026515896e-10 8.365309655875147e-09 -4.0244401231548465e-09 2.221669932038622 -0.7334870246959406 -0.20891999872313852 -3.196540018937177e-14 1.8628200876948192e-15 7.511840122813439e-13 -54.386501417250415 38.834700262075806 -30.62400008720925 27.84759990658535 -41.154099315523325 -86.01430025583059 0.9935219847126993 -27.090000446489416 4.122399947148923 -8.70740952105936e-10 2.0504300528125203e-09 2.574549931558376e-10 -1.5129199891615366e-09 3.518869885361456e-09 4.2425299625241293e-10 -8.707440332682837e-10 2.0504300528125203e-09 2.574549931558376e-10 -7.730910121524428 5.474879855648998 -0.41731399283890674 -8.707379703359221e-10 2.0504499312792795e-09 2.5744999869106436e-10 -2.90554006136521 0.9651829962377875 -0.10290200252939893 -8.707480089616355e-10 2.050419914794473e-09 2.5745300530916167e-10 -10.278599710243157 0.7318009818271524 -0.025912300303053633 -8.707359824892462e-10 2.0504300528125203e-09 2.5744500422629114e-10 -2.221669932038622 -0.7334870246959406 0.20891999872313852 -2.0321699793705798e-16 0.0 -3.882510030490358e-19 -6.574810104493267 -9.750310191152057 -3.4378999463148134 -0.5601569939634097 55.62639931766117 2.390059921732236 -12.10899990780007 -18.22529941331038 -32.94320106517083 2.0321699793705798e-16 0.0 3.882510030490358e-19 47.131699877105476 -53.35670013570925 40.53000102539716 0.9469440432763262 55.00010170662226 -0.5492929911191227 -0.09512309741562877 8.669279929514861 -3.7644100959546916
8.951900006422875 58.66609811782837 5.313000089518027 172.96700020172923 -156.79499737934995 -173.1599940269171 2.3513000922962943 10.980399939914674 5.930070128921682 -0.3779280004747191 -6.409099896831825 1.4795299647987745 -0.730139004703018 13.833599621339841 4.51719982221447 2.2639599020584025 -24.983100530952044 9.456810132327439 -0.0 0.0 0.0 -0.0 0.0 0.0 -1.8584199492212592e-13 -2.266900116671756e-13 7.078830237983199e-13 74.74519846498323 51.209599434264476 -23.949399211394805 -27.185500151464534 -43.497899219780706 90.45550099003715 -0.03917259897842432 -5.650819979139826 -0.7967670198088163 3.839109897612304e-10 1.2227000000840835e-08 -4.02373006432221e-09 6.735269815654402e-10 2.1051199291018867e-08 -6.951879901958134e-09 3.8391200853265183e-10 1.2227000000840835e-08 -4.023749942788969e-09 7.730910121524428 5.474879855648998 0.41731399283890674 3.8390900191455447e-10 1.2227000000840835e-08 -4.0237400035555895e-09 2.90554006136521 0.9651829962377875 0.10290200252939893 3.8391399637932774e-10 1.2227000000840835e-08 -4.0237400035555895e-09 10.278599710243157 0.7318009818271524 0.025912300303053633 3.8390100083168393e-10 1.2227000000840835e-08 -4.02373006432221e-09 2.221669932038622 -0.7334870246959406 -0.20891999872313852 -1.8615700019096608e-13 -2.266900116671756e-13 7.075660166086941e-13 -54.128398813799386 38.51420046546213 -31.693098862140083 27.918399939974414 -40.82750015998082 -85.41549757129557 1.024680027045828 -27.47080056819055 4.19033983882304 -8.250400091534888e-10 2.1736499095737746e-09 3.1216001186725764e-10 -1.4330000050490593e-09 3.730179974857864e-09 5.187269998025998e-10 -8.250480102363593e-10 2.1736499095737746e-09 3.1216001186725764e-10 -7.730910121524428 5.474879855648998 -0.41731399283890674 -8.250300202239423e-10 2.1736399703403948e-09 3.121520107843871e-10 -2.90554006136521 0.9651829962377875 -0.10290200252939893 -8.250400091534888e-10 2.1736399703403948e-09 3.121579991724983e-10 -10.278599710243157 0.7318009818271524 -0.025912300303053633 -8.250330019939562e-10 2.1736499095737746e-09 3.121480102429518e-10 -2.221669932038622 -0.7334870246959406 0.20891999872313852 -2.0321699793705798e-16 0.0 -3.882510030490358e-19 -6.228519940460443 -8.26627998546389 -3.461920014078456 -0.516519982573256 54.61510101858157 2.3622700164335693 -12.35159968938246 -18.83370022117656 -32.79670033766323 2.0321699793705798e-16 0.0 3.882510030490358e-19 47.79549864178234 -53.97550161413407 42.25620156452366 1.0107100490373306 56.0107989490549 -0.5631219897542828 -0.014847600620937929 7.8480495733374385 -4.495799985771174
